<svg version="1.1" id="Layer_1" xmlns="http://www.w3.org/2000/svg" xmlns:xlink="http://www.w3.org/1999/xlink" x="0px" y="0px"
	 width="100%" viewBox="0 0 359 373" enable-background="new 0 0 359 373" xml:space="preserve">
<path fill="none" opacity="1.000000" stroke="none" 
	d="
M243.000000,374.000000 
	C162.027496,374.000000 81.554977,374.000000 1.041233,374.000000 
	C1.041233,249.736618 1.041233,125.473228 1.041233,1.104918 
	C120.555779,1.104918 240.111679,1.104918 359.833801,1.104918 
	C359.833801,125.333153 359.833801,249.666565 359.833801,374.000000 
	C321.139984,374.000000 282.319977,374.000000 243.000000,374.000000 
M113.922173,230.426941 
	C113.720581,230.148438 113.454063,229.963516 112.815720,229.279709 
	C91.450027,207.935120 65.781296,197.176941 33.898598,196.766998 
	C36.891628,204.120865 38.680504,210.379395 41.839893,215.845825 
	C46.684994,224.228928 52.473385,232.066849 58.129292,240.752502 
	C60.374847,242.881302 62.620407,245.010101 65.182396,247.729263 
	C73.051674,252.560654 80.588844,258.083405 88.868408,262.060669 
	C101.144760,267.957886 114.674286,269.183929 128.116898,269.764160 
	C133.084778,269.978638 138.105865,268.961060 144.203674,268.404968 
	C142.057602,265.258850 140.743454,262.997406 139.110825,260.995667 
	C131.162842,251.250809 123.129662,241.575424 114.917908,231.432831 
	C114.720436,231.154221 114.457283,230.968857 113.922173,230.426941 
M135.280167,43.701481 
	C118.951485,66.947067 114.640015,92.955421 116.744377,120.993660 
	C160.607330,102.407684 187.041000,54.555519 177.541534,9.655457 
	C160.608841,17.428072 146.434631,28.045986 135.280167,43.701481 
M60.554695,112.960434 
	C53.415234,140.553818 59.456970,165.558548 74.970642,189.954102 
	C77.201782,186.891693 78.828049,185.014099 80.063835,182.907471 
	C90.457916,165.188797 94.744560,146.236389 92.863281,125.611153 
	C91.427238,109.867188 86.340462,95.496780 79.348976,81.602287 
	C78.750938,80.413780 77.396332,79.605980 76.393181,78.621323 
	C75.599785,79.594757 74.540550,80.451591 74.054451,81.559814 
	C69.586243,91.746658 65.217331,101.977051 60.554695,112.960434 
M201.971710,126.351280 
	C202.652618,127.035896 203.212799,127.965019 204.032028,128.369492 
	C226.625076,139.524231 250.064301,142.931213 274.490417,135.473099 
	C281.396637,133.364410 288.029907,130.415100 293.260376,124.981087 
	C269.249451,103.868240 226.234695,100.970886 201.971710,126.351280 
M250.185440,292.604004 
	C275.343964,287.950470 301.570709,268.430603 303.563904,252.875870 
	C280.157074,249.262054 243.233139,270.766174 237.979721,291.782959 
	C241.840866,292.070923 245.563660,292.348602 250.185440,292.604004 
M205.385529,266.725708 
	C210.822067,265.997314 216.258606,265.268890 222.409958,264.444702 
	C210.641815,249.920959 176.856567,229.171234 155.291290,229.154495 
	C155.723953,230.823105 155.942413,232.423141 156.542374,233.864380 
	C164.135818,252.104935 178.104538,269.392609 205.385529,266.725708 
M142.315033,213.191910 
	C143.461655,211.226532 144.940933,209.381500 145.702347,207.276779 
	C151.864990,190.241302 148.490036,174.246811 139.899597,159.000885 
	C136.693695,153.311218 133.179092,147.723099 126.879272,143.777496 
	C125.914803,146.413513 125.000671,148.515625 124.371872,150.699875 
	C121.798492,159.638992 121.672539,168.707169 123.348953,177.800262 
	C125.864418,191.444397 130.300385,204.130661 142.315033,213.191910 
M146.668411,313.023102 
	C129.102753,315.888916 112.550255,321.579620 97.301064,330.843689 
	C93.010910,333.450012 92.853203,334.492798 97.120323,337.466217 
	C103.248100,341.736084 109.632454,345.645355 115.983658,349.585419 
	C133.531067,360.471161 153.152603,363.787781 173.247223,363.753845 
	C188.757751,363.727661 203.904678,360.156586 218.132263,353.722687 
	C225.454773,350.411316 232.439621,346.353241 240.908249,341.938660 
	C212.133896,320.564087 182.678268,307.726318 146.668411,313.023102 
M280.152161,160.195679 
	C291.965485,174.886475 307.876678,182.314133 325.845642,186.332123 
	C323.316620,177.893494 318.047272,171.622437 311.979797,165.956924 
	C303.541138,158.077316 293.821503,154.036179 282.039551,156.203110 
	C279.815460,156.612152 278.398895,157.014648 280.152161,160.195679 
M299.397247,198.168549 
	C294.997375,212.054016 302.649048,234.085556 310.578430,236.044159 
	C316.943634,224.636917 314.468048,207.812317 305.101257,196.508301 
	C302.244537,193.060730 300.966583,194.193405 299.397247,198.168549 
z"/>
<path fill="#6DD77A" opacity="1.000000" stroke="none" 
	d="
M135.503815,43.424355 
	C146.434631,28.045986 160.608841,17.428072 177.541534,9.655457 
	C187.041000,54.555519 160.607330,102.407684 116.744377,120.993660 
	C114.640015,92.955421 118.951485,66.947067 135.503815,43.424355 
z"/>
<path fill="#6AD677" opacity="1.000000" stroke="none" 
	d="
M60.687096,112.577599 
	C65.217331,101.977051 69.586243,91.746658 74.054451,81.559814 
	C74.540550,80.451591 75.599785,79.594757 76.393181,78.621323 
	C77.396332,79.605980 78.750938,80.413780 79.348976,81.602287 
	C86.340462,95.496780 91.427238,109.867188 92.863281,125.611153 
	C94.744560,146.236389 90.457916,165.188797 80.063835,182.907471 
	C78.828049,185.014099 77.201782,186.891693 74.970642,189.954102 
	C59.456970,165.558548 53.415234,140.553818 60.687096,112.577599 
z"/>
<path fill="#66D673" opacity="1.000000" stroke="none" 
	d="
M201.982117,126.040489 
	C226.234695,100.970886 269.249451,103.868240 293.260376,124.981087 
	C288.029907,130.415100 281.396637,133.364410 274.490417,135.473099 
	C250.064301,142.931213 226.625076,139.524231 204.032028,128.369492 
	C203.212799,127.965019 202.652618,127.035896 201.982117,126.040489 
z"/>
<path fill="#67D674" opacity="1.000000" stroke="none" 
	d="
M249.735962,292.615143 
	C245.563660,292.348602 241.840866,292.070923 237.979721,291.782959 
	C243.233139,270.766174 280.157074,249.262054 303.563904,252.875870 
	C301.570709,268.430603 275.343964,287.950470 249.735962,292.615143 
z"/>
<path fill="#68D575" opacity="1.000000" stroke="none" 
	d="
M204.902008,266.735901 
	C178.104538,269.392609 164.135818,252.104935 156.542374,233.864380 
	C155.942413,232.423141 155.723953,230.823105 155.291290,229.154495 
	C176.856567,229.171234 210.641815,249.920959 222.409958,264.444702 
	C216.258606,265.268890 210.822067,265.997314 204.902008,266.735901 
z"/>
<path fill="#63D570" opacity="1.000000" stroke="none" 
	d="
M141.990723,213.202621 
	C130.300385,204.130661 125.864418,191.444397 123.348953,177.800262 
	C121.672539,168.707169 121.798492,159.638992 124.371872,150.699875 
	C125.000671,148.515625 125.914803,146.413513 126.879272,143.777496 
	C133.179092,147.723099 136.693695,153.311218 139.899597,159.000885 
	C148.490036,174.246811 151.864990,190.241302 145.702347,207.276779 
	C144.940933,209.381500 143.461655,211.226532 141.990723,213.202621 
z"/>
<path fill="#34C340" opacity="1.000000" stroke="none" 
	d="
M147.112518,313.010590 
	C182.678268,307.726318 212.133896,320.564087 240.908249,341.938660 
	C232.439621,346.353241 225.454773,350.411316 218.132263,353.722687 
	C203.904678,360.156586 188.757751,363.727661 173.247223,363.753845 
	C153.152603,363.787781 133.531067,360.471161 115.983658,349.585419 
	C109.632454,345.645355 103.248100,341.736084 97.120323,337.466217 
	C92.853203,334.492798 93.010910,333.450012 97.301064,330.843689 
	C112.550255,321.579620 129.102753,315.888916 147.112518,313.010590 
M98.292320,334.348328 
	C99.610817,335.801025 100.722557,337.540009 102.278603,338.663757 
	C128.357880,357.497711 157.318192,364.910919 189.192657,359.995056 
	C203.651031,357.765167 217.223526,352.677704 229.941605,345.499756 
	C235.087708,342.595337 235.281021,340.358612 231.052124,337.438782 
	C216.240555,327.212158 200.249802,319.410095 182.513412,315.900726 
	C154.419907,310.342102 128.315933,317.077271 103.339935,329.721375 
	C101.483742,330.661041 99.990211,332.317078 98.292320,334.348328 
z"/>
<path fill="#5AD467" opacity="1.000000" stroke="none" 
	d="
M279.939240,159.892700 
	C278.398895,157.014648 279.815460,156.612152 282.039551,156.203110 
	C293.821503,154.036179 303.541138,158.077316 311.979797,165.956924 
	C318.047272,171.622437 323.316620,177.893494 325.845642,186.332123 
	C307.876678,182.314133 291.965485,174.886475 279.939240,159.892700 
z"/>
<path fill="#56D164" opacity="1.000000" stroke="none" 
	d="
M299.521179,197.800171 
	C300.966583,194.193405 302.244537,193.060730 305.101257,196.508301 
	C314.468048,207.812317 316.943634,224.636917 310.578430,236.044159 
	C302.649048,234.085556 294.997375,212.054016 299.521179,197.800171 
z"/>
<path fill="#24B42E" opacity="1.000000" stroke="none" 
	d="
M57.861450,240.136139 
	C52.473385,232.066849 46.684994,224.228928 41.839893,215.845825 
	C38.680504,210.379395 36.891628,204.120865 33.898598,196.766998 
	C65.781296,197.176941 91.450027,207.935120 112.815018,229.754700 
	C112.814308,230.229691 112.509384,230.590057 112.213898,230.427750 
	C110.142456,228.766342 108.334877,227.302948 106.595421,225.762619 
	C88.975861,210.160110 68.369972,201.373672 45.041435,198.884384 
	C37.462605,198.075684 36.037514,199.590210 39.530243,206.296844 
	C45.413685,217.594131 52.131653,228.456802 58.339325,239.660736 
	C58.180031,239.819214 57.861446,240.136139 57.861450,240.136139 
z"/>
<path fill="#24B42E" opacity="1.000000" stroke="none" 
	d="
M115.126640,231.875443 
	C123.129662,241.575424 131.162842,251.250809 139.110825,260.995667 
	C140.743454,262.997406 142.057602,265.258850 144.203674,268.404968 
	C138.105865,268.961060 133.084778,269.978638 128.116898,269.764160 
	C114.674286,269.183929 101.144760,267.957886 88.868408,262.060669 
	C80.588844,258.083405 73.051674,252.560654 65.182037,247.269409 
	C65.181686,246.809570 65.497337,246.480179 65.799522,246.630981 
	C87.823311,263.864197 112.476341,269.599060 139.295105,266.950378 
	C139.628250,266.380188 139.961411,265.809967 140.294556,265.239777 
	C131.667664,254.324753 123.040756,243.409714 114.592850,232.340790 
	C114.771835,232.186874 115.126640,231.875443 115.126640,231.875443 
z"/>
<path fill="#24B42E" opacity="1.000000" stroke="none" 
	d="
M65.023827,246.974228 
	C62.620407,245.010101 60.374847,242.881302 57.995369,240.444321 
	C57.861446,240.136139 58.180031,239.819214 58.617310,239.834671 
	C61.202168,242.060150 63.349751,244.270172 65.497330,246.480179 
	C65.497337,246.480179 65.181686,246.809570 65.023827,246.974228 
z"/>
<path fill="#24B42E" opacity="1.000000" stroke="none" 
	d="
M112.968460,230.050949 
	C113.454063,229.963516 113.720581,230.148438 113.860954,230.814774 
	C113.799736,231.202606 113.471977,231.529419 113.284912,231.401779 
	C112.861290,231.080856 112.665138,230.852829 112.509384,230.590057 
	C112.509384,230.590057 112.814308,230.229691 112.968460,230.050949 
z"/>
<path fill="#24B42E" opacity="1.000000" stroke="none" 
	d="
M113.964096,231.039673 
	C114.457283,230.968857 114.720436,231.154221 115.022278,231.654144 
	C115.126640,231.875443 114.771835,232.186874 114.409218,232.207642 
	C113.815063,232.028305 113.623528,231.795303 113.471977,231.529419 
	C113.471977,231.529419 113.799736,231.202606 113.964096,231.039673 
z"/>
<path fill="#76D983" opacity="1.000000" stroke="none" 
	d="
M98.310211,333.994202 
	C99.990211,332.317078 101.483742,330.661041 103.339935,329.721375 
	C128.315933,317.077271 154.419907,310.342102 182.513412,315.900726 
	C200.249802,319.410095 216.240555,327.212158 231.052124,337.438782 
	C235.281021,340.358612 235.087708,342.595337 229.941605,345.499756 
	C217.223526,352.677704 203.651031,357.765167 189.192657,359.995056 
	C157.318192,364.910919 128.357880,357.497711 102.278603,338.663757 
	C100.722557,337.540009 99.610817,335.801025 98.310211,333.994202 
z"/>
<path fill="#75D982" opacity="1.000000" stroke="none" 
	d="
M113.284912,231.401779 
	C113.623528,231.795303 113.815063,232.028305 114.230225,232.361542 
	C123.040756,243.409714 131.667664,254.324753 140.294556,265.239777 
	C139.961411,265.809967 139.628250,266.380188 139.295105,266.950378 
	C112.476341,269.599060 87.823311,263.864197 65.799515,246.630981 
	C63.349751,244.270172 61.202168,242.060150 58.776600,239.676208 
	C52.131653,228.456802 45.413685,217.594131 39.530243,206.296844 
	C36.037514,199.590210 37.462605,198.075684 45.041435,198.884384 
	C68.369972,201.373672 88.975861,210.160110 106.595421,225.762619 
	C108.334877,227.302948 110.142456,228.766342 112.213898,230.427750 
	C112.665138,230.852829 112.861290,231.080856 113.284912,231.401779 
z"/>
</svg>